<svg fill="none" height="144" viewBox="0 0 144 144" width="144" xmlns="http://www.w3.org/2000/svg"><path d="m0 23c0-12.7026 10.2975-23 23-23h98c12.703 0 23 10.2975 23 23v98c0 12.703-10.297 23-23 23h-98c-12.7026 0-23-10.297-23-23z" fill="#009661"/><path d="m54.875 73.375-9.0625 52.625h-17.625l11.75-67.625h16.4375zm-5.0625 16.4375-4.6875.0625c.5-4.0833 1.4167-8.1042 2.75-12.0625 1.375-3.9583 3.25-7.5208 5.625-10.6875 2.4167-3.1667 5.375-5.6667 8.875-7.5s7.5833-2.6875 12.25-2.5625c3.4583.0833 6.3333.7917 8.625 2.125s4.1042 3.1042 5.4375 5.3125 2.2083 4.7292 2.625 7.5625c.4583 2.8333.5417 5.7708.25 8.8125l-7.5 45.125h-17.5625l7.1875-43.1875c.25-2.0833.2292-4-.0625-5.75s-1.0208-3.1458-2.1875-4.1875c-1.1667-1.0833-2.9375-1.6667-5.3125-1.75-2.5833-.0833-4.8333.4375-6.75 1.5625-1.9167 1.0833-3.5208 2.5417-4.8125 4.375-1.25 1.8333-2.2708 3.875-3.0625 6.125-.7917 2.2083-1.3542 4.4167-1.6875 6.625zm39.4375-2.0625-6.3125.875c.4583-4 1.375-7.875 2.75-11.625 1.375-3.7917 3.25-7.2083 5.625-10.25s5.2708-5.4375 8.6875-7.1875c3.417-1.75 7.375-2.5833 11.875-2.5 3.708.125 6.792.8958 9.25 2.3125s4.354 3.3333 5.687 5.75c1.376 2.4167 2.271 5.1458 2.688 8.1875.417 3 .458 6.1667.125 9.5l-7.25 43.1875h-17.625l7.25-43.25c.25-2.0833.229-3.9792-.062-5.6875-.292-1.75-1.021-3.1458-2.188-4.1875-1.125-1.0833-2.875-1.6458-5.25-1.6875-2.375-.0833-4.458.3542-6.25 1.3125-1.75.9167-3.2292 2.1875-4.4375 3.8125-1.2083 1.5833-2.1875 3.375-2.9375 5.375s-1.2917 4.0208-1.625 6.0625z" fill="#fff"/></svg>